<?xml version="1.0" encoding="UTF-8" standalone="no"?>
<!DOCTYPE svg PUBLIC "-//W3C//DTD SVG 1.1//EN"
"http://www.w3.org/Graphics/SVG/1.1/DTD/svg11.dtd">


<!-- Page 1 -->
<svg x="0" y="0" width="305" height="305" viewBox="0 0 305 305" version="1.1" xmlns="http://www.w3.org/2000/svg" xmlns:xlink="http://www.w3.org/1999/xlink"
style="display: block;margin-left: auto;margin-right: auto;">
<defs>

<style type="text/css"><![CDATA[

.g0_1{
fill: #231F20;
}

]]></style>

</defs>
<path d="M0,0
L0,305
L305,305
L305,0 Z " 
fill="#FFFFFF" stroke="none" />
<path d="M28.2,153.7c0,34.6,14,65.8,36.6,88.5c22.7,22.6,53.9,36.6,88.5,36.6c34.6,0,65.8,-14,88.5,-36.6c22.6,-22.7,36.6,-53.9,36.6,-88.5c0,-34.6,-14,-65.8,-36.6,-88.5C219.1,42.6,187.9,28.6,153.3,28.6c-34.6,0,-65.8,14,-88.5,36.6C42.2,87.9,28.2,119.1,28.2,153.7m-15.9,0c0,-77.9,63.1,-141,141,-141c77.8,0,141,63.1,141,141c0,77.8,-63.2,141,-141,141c-77.9,0,-141,-63.2,-141,-141Z" class="g0_1" />
<path d="M77,168.7c1.3,0,2.6,-.1,3.9,-.5c1.4,-.3,2.7,-1,3.8,-1.9c1.2,-.9,2.1,-2.1,2.8,-3.7c.7,-1.5,1.1,-3.4,1.1,-5.8V136c0,-2.4,-.4,-4.3,-1.1,-5.9c-.7,-1.5,-1.6,-2.8,-2.8,-3.7c-1.1,-.9,-2.4,-1.5,-3.8,-1.9C79.6,124.2,78.3,124,77,124c-.1,0,-.3,0,-.5,0c-.2,0,-.3,0,-.5,0c-1.2,0,-2.5,.2,-3.8,.6c-1.4,.4,-2.7,1,-3.9,1.9c-1.1,.9,-2,2.1,-2.7,3.7c-.7,1.5,-1.1,3.4,-1.1,5.8v20.8c0,2.4,.4,4.3,1.1,5.8c.7,1.6,1.6,2.8,2.7,3.7c1.2,.9,2.5,1.5,3.9,1.9c1.3,.4,2.6,.5,3.8,.5c.2,0,.3,0,.5,0c.2,0,.4,0,.5,0M60.5,169c-3.8,-3.5,-5.7,-8.4,-5.7,-14.4V138.2c0,-6,1.9,-10.9,5.7,-14.5c3.9,-3.5,9.3,-5.3,16.4,-5.3c3.3,0,6.3,.5,8.9,1.4c2.7,.9,4.9,2.2,6.8,4c1.9,1.7,3.3,3.8,4.2,6.2c1,2.4,1.5,5.2,1.5,8.2v16.4c0,3,-.5,5.7,-1.5,8.2c-.9,2.4,-2.3,4.5,-4.2,6.2c-1.9,1.7,-4.1,3,-6.8,4c-2.6,.9,-5.6,1.3,-8.9,1.3c-7.1,.1,-12.5,-1.7,-16.4,-5.3Z" class="g0_1" />
<path d="M122.7,168.7c1.3,0,2.4,-.1,3.5,-.5c1.2,-.4,2.1,-1,3,-1.9c.8,-.9,1.4,-2,1.9,-3.6c.4,-1.5,.7,-3.5,.7,-5.9v-2.5c0,-2.4,-.3,-4.4,-.7,-6c-.5,-1.6,-1.1,-2.9,-2,-3.8c-.8,-1,-1.8,-1.6,-2.9,-2.1c-1.1,-.4,-2.2,-.6,-3.5,-.6c-.1,0,-.3,.1,-.5,.1c-.1,-.1,-.2,-.1,-.4,-.1c-1.3,0,-2.4,.2,-3.5,.6c-1.1,.4,-2.1,1.1,-2.9,2c-.8,1,-1.5,2.3,-1.9,3.9c-.5,1.6,-.7,3.6,-.7,6v2.5c0,2.4,.2,4.4,.7,5.9c.4,1.6,1.1,2.8,1.9,3.7c.8,.9,1.8,1.5,2.9,1.8c1.1,.4,2.2,.5,3.5,.5c.1,0,.3,0,.5,0c.1,0,.3,0,.4,0m-9.2,4.3c-2.3,-.8,-4.2,-2.1,-5.8,-3.8c-1.5,-1.6,-2.6,-3.6,-3.4,-5.9c-.7,-2.3,-1.1,-4.9,-1.2,-7.8c.1,-2.9,.5,-5.5,1.2,-7.8c.8,-2.4,1.9,-4.4,3.4,-6.1c1.6,-1.7,3.5,-3,5.8,-4c2.3,-.9,5.1,-1.4,8.4,-1.4c2.2,0,4.2,.3,6,.8c1.3,.4,2.6,.9,3.7,1.4l.2,-20h9.7v.7c0,2.7,0,5.6,0,8.4c0,2.9,0,5.6,0,8.3c0,2.7,0,5.2,0,7.6c0,2.3,0,4.4,0,6.1c0,1.8,0,3.3,0,4.3v1.7h-.7h.7c-.1,2.9,-.5,5.5,-1.3,7.8c-.8,2.3,-1.9,4.3,-3.5,5.9c-1.6,1.7,-3.6,3,-6,3.8c-2.5,.9,-5.4,1.3,-8.8,1.3c-3.3,0,-6,-.4,-8.4,-1.3Z" class="g0_1" />
<path d="M166.1,168.7c1.3,0,2.4,-.1,3.5,-.5c1.1,-.4,2.1,-1,2.9,-1.9c.8,-.9,1.5,-2,1.9,-3.6c.5,-1.5,.7,-3.5,.7,-5.9v-2.5c0,-2.4,-.2,-4.4,-.7,-6c-.4,-1.6,-1.1,-2.9,-1.9,-3.8c-.8,-1,-1.8,-1.6,-3,-2.1c-1,-.4,-2.2,-.6,-3.4,-.6c-.2,0,-.3,.1,-.5,.1c-.1,-.1,-.3,-.1,-.4,-.1c-1.3,0,-2.4,.2,-3.5,.6c-1.1,.4,-2.1,1.1,-2.9,2c-.9,1,-1.5,2.3,-2,3.9c-.4,1.6,-.7,3.6,-.7,6v2.5c0,2.4,.3,4.4,.7,5.9c.5,1.6,1.1,2.8,1.9,3.7c.9,.9,1.8,1.5,3,1.8c1,.4,2.2,.5,3.4,.5c.2,0,.3,0,.5,0c.2,0,.3,0,.5,0m-9.2,4.3c-2.3,-.8,-4.3,-2.1,-5.8,-3.8c-1.5,-1.6,-2.7,-3.6,-3.4,-5.9c-.8,-2.3,-1.2,-4.9,-1.3,-7.8c.1,-2.9,.5,-5.5,1.3,-7.8c.7,-2.4,1.9,-4.4,3.4,-6.1c1.5,-1.7,3.5,-3,5.8,-4c2.3,-.9,5.1,-1.4,8.4,-1.4c2.2,0,4.2,.3,5.9,.8c1.4,.4,2.6,.9,3.8,1.4l.1,-20h9.7v37.1h-.6h.6c-.1,2.9,-.5,5.5,-1.2,7.8c-.8,2.3,-2,4.3,-3.5,5.9c-1.6,1.7,-3.6,3,-6.1,3.8c-2.4,.9,-5.3,1.3,-8.7,1.3c-3.3,0,-6.1,-.4,-8.4,-1.3Z" class="g0_1" />
<path d="M191.8,152.2v-.6Zm-.7,5.5v-6.8h19.5v6.8Z" class="g0_1" />
<path d="M235,142.7c-1.3,0,-2.5,.3,-3.4,.8c-1.1,.7,-1.9,1.4,-2.6,2.4c-.7,1,-1.3,2.1,-1.7,3.4c-.3,1.1,-.6,2.2,-.7,3.4h17.5c-.4,-3.5,-1.4,-6,-2.9,-7.6c-1.5,-1.6,-3.5,-2.4,-6,-2.4Zm17.8,15.1v-.6Zm-16.2,16.5c-.2,0,-.5,0,-.7,0c-2.6,0,-5.1,-.5,-7.3,-1.4c-2.3,-.9,-4.2,-2.2,-5.9,-3.8c-1.6,-1.6,-3,-3.6,-3.9,-5.8c-1,-2.3,-1.6,-4.8,-1.7,-7.5c0,-2.5,.5,-4.9,1.4,-7.1c.9,-2.2,2.2,-4.1,3.8,-5.8c1.6,-1.7,3.6,-3.1,5.8,-4.1c2.2,-1,4.6,-1.5,7.2,-1.6c2.8,0,5.3,.5,7.6,1.5c2.2,1,4.2,2.3,5.8,4c1.6,1.7,2.8,3.7,3.7,5.9c.7,2,1.1,4.1,1.1,6.3c0,.3,0,.5,0,.8c0,.2,0,.6,0,1c0,.5,-.1,.9,-.1,1.1v.7H226.5c.1,1,.4,2.1,.7,3.2c.4,1.3,1,2.6,1.9,3.7c.8,1,1.9,1.9,3.3,2.7c1.3,.7,3,1.1,5.1,1.1c1.7,0,4.1,-.4,7.1,-1.2l.7,-.2l.8,3.6l-.5,.2c-1.5,.7,-3,1.3,-4.6,1.9c-1.4,.5,-2.8,.8,-4.3,.8Z" class="g0_1" />

</svg>
